<!--?xml version="1.0" standalone="no"?-->

<svg version="1.0" xmlns="http://www.w3.org/2000/svg" width="300.000000pt" height="221.000000pt" viewBox="0 0 300.000000 221.000000" preserveAspectRatio="xMidYMid meet">
<g transform="translate(0.000000,221.000000) scale(0.100000,-0.100000)" fill="#090909" stroke="none">
<path d="M2528 2167 c-32 -43 -78 -115 -78 -122 0 -10 -79 -120 -112 -156 -75
-82 -322 -215 -625 -339 -240 -97 -313 -138 -352 -193 -22 -33 -38 -45 -74
-54 -61 -17 -110 -61 -173 -158 -28 -44 -62 -90 -75 -102 -62 -57 -178 -80
-240 -47 -32 16 -69 86 -69 130 0 40 40 113 78 142 41 32 125 39 142 12 5 -8
10 -10 10 -4 0 21 -38 46 -79 51 -86 12 -169 -59 -197 -168 -27 -106 0 -197
68 -234 70 -37 37 -50 -152 -61 -120 -6 -131 -5 -175 16 -95 46 -133 144 -78
202 29 30 21 37 -15 12 -52 -36 -66 -117 -33 -189 57 -121 159 -153 379 -120
62 9 138 25 169 36 31 10 58 17 61 15 10 -11 -54 -37 -163 -66 -146 -38 -210
-66 -342 -147 -184 -113 -274 -153 -339 -153 -24 0 -44 -4 -44 -10 0 -16 56
-40 93 -40 69 0 229 65 330 134 72 49 134 75 253 105 65 16 150 41 188 56 38
14 70 24 72 23 9 -10 -23 -31 -122 -80 -261 -129 -393 -261 -419 -419 -10 -60
-29 -103 -66 -150 -36 -45 -33 -48 19 -15 45 28 62 52 118 166 51 104 114 177
197 227 34 20 77 48 96 60 74 50 62 19 -27 -69 -135 -136 -172 -200 -172 -298
0 -46 34 -130 55 -137 6 -2 10 29 10 71 1 67 5 83 44 160 33 67 61 105 124
170 74 75 207 178 207 160 0 -4 -9 -27 -21 -50 -11 -24 -28 -78 -37 -122 -15
-74 -15 -81 2 -126 33 -87 115 -143 196 -134 l35 4 -34 9 c-54 13 -108 74
-117 132 -14 94 33 223 119 328 92 112 201 224 226 233 14 6 51 15 82 21 39 8
64 20 83 40 17 17 35 27 45 24 10 -2 45 6 77 20 32 13 87 34 121 47 73 26 163
86 235 156 61 59 192 233 273 364 66 107 163 228 227 285 69 60 128 82 246 89
111 7 157 20 191 57 28 30 27 34 -11 49 -18 7 -57 31 -86 53 -35 27 -64 41
-86 41 -19 1 -40 7 -48 14 -8 6 -39 16 -68 22 -29 6 -68 21 -86 35 l-32 24
-24 -32z m-1026 -1164 c26 -23 22 -48 -13 -77 -35 -30 -61 -33 -83 -10 -23 22
-20 51 9 79 28 29 61 32 87 8z" id="node1" class="node"></path>
<path d="M1432 978 c-17 -17 -15 -45 4 -52 30 -11 74 30 58 55 -8 13 -48 11
-62 -3z" id="node2" class="node"></path>
</g>
<g transform="translate(0.000000,221.000000) scale(0.100000,-0.100000)" fill="#A4A4A4" stroke="none">

<path d="M1415 995 c-29 -28 -32 -57 -9 -79 22 -23 48 -20 83 10 35 29 39 54
13 77 -26 24 -59 21 -87 -8z m79 -14 c16 -25 -28 -66 -58 -55 -19 7 -21 35 -4
52 14 14 54 16 62 3z" id="node4" class="node"></path>
</g>
</svg>