<?xml version="1.0" standalone="no"?>
<!DOCTYPE svg PUBLIC "-//W3C//DTD SVG 20010904//EN"
 "http://www.w3.org/TR/2001/REC-SVG-20010904/DTD/svg10.dtd">
<svg version="1.0" xmlns="http://www.w3.org/2000/svg"
 width="718.000000pt" height="1280.000000pt" viewBox="0 0 718.000000 1280.000000"
 preserveAspectRatio="xMidYMid meet">
<g transform="translate(0.000000,1280.000000) scale(0.100000,-0.100000)"
fill="#000000" stroke="none">
<path d="M1992 12741 c-100 -27 -211 -59 -245 -71 -291 -106 -507 -307 -718
-670 -39 -69 -87 -145 -104 -170 -18 -25 -55 -85 -83 -135 -27 -49 -68 -121
-91 -160 -79 -134 -132 -310 -191 -628 -17 -92 -44 -204 -60 -248 -22 -60 -30
-98 -30 -148 0 -37 -11 -144 -25 -239 -39 -266 -31 -416 31 -614 42 -134 66
-170 159 -237 151 -110 233 -238 242 -379 7 -95 1 -108 -72 -162 -30 -22 -55
-47 -55 -55 0 -7 42 -37 92 -66 51 -28 110 -65 130 -82 44 -35 78 -99 78 -148
1 -31 7 -38 68 -79 37 -24 112 -90 167 -146 56 -56 112 -105 125 -109 53 -16
141 -67 218 -124 84 -64 157 -141 316 -336 174 -211 268 -299 403 -372 51 -28
93 -63 156 -131 48 -51 87 -99 87 -106 0 -7 -7 -27 -15 -43 -8 -17 -19 -74
-24 -126 -9 -89 -22 -134 -43 -148 -5 -3 -35 4 -66 17 -35 14 -78 24 -110 24
-87 0 -204 68 -677 390 -140 95 -286 183 -361 216 -48 21 -58 22 -108 12 -52
-11 -56 -11 -96 16 -23 15 -99 73 -168 130 -70 56 -155 123 -190 149 -34 27
-62 54 -62 60 0 7 -12 34 -25 62 -13 27 -22 59 -19 70 5 20 -30 84 -85 156
-11 14 -23 39 -27 55 -4 16 -24 58 -45 94 -20 36 -49 104 -63 151 -14 48 -32
92 -40 98 -26 21 -28 71 -5 108 20 32 21 40 10 103 -6 38 -11 81 -11 95 0 37
-65 115 -97 115 -24 0 -27 4 -37 53 -5 22 -12 27 -35 27 -37 0 -87 -41 -100
-83 -6 -18 -20 -77 -31 -132 -12 -55 -30 -113 -41 -128 l-20 -28 26 -64 c16
-40 23 -74 19 -89 -3 -14 0 -34 10 -48 8 -12 22 -57 31 -98 10 -45 40 -120 75
-190 31 -63 68 -144 81 -179 15 -43 35 -76 59 -97 40 -36 78 -99 67 -110 -4
-4 -30 -2 -58 4 -28 7 -66 12 -84 12 -29 0 -35 -4 -44 -32 -24 -72 -33 -189
-22 -273 23 -166 70 -278 232 -552 66 -110 131 -232 145 -269 54 -151 146
-245 322 -331 62 -31 117 -64 122 -74 6 -9 30 -31 54 -47 36 -25 65 -33 158
-47 62 -9 226 -41 363 -72 341 -75 454 -93 639 -100 l158 -6 -6 -44 c-8 -64
-62 -300 -91 -404 -40 -141 -64 -199 -83 -199 -9 0 -89 55 -177 121 -180 136
-240 174 -340 214 -61 24 -76 26 -139 20 -62 -5 -80 -3 -141 20 -61 23 -91 27
-250 35 -99 4 -192 13 -206 18 -15 6 -73 65 -130 132 -112 132 -107 119 -94
237 8 61 7 64 -20 85 -79 64 -107 78 -159 78 l-51 0 -48 -101 -48 -100 22 -45
c30 -59 102 -141 231 -264 101 -95 183 -201 208 -264 21 -55 126 -81 370 -91
177 -7 206 -13 273 -59 42 -29 77 -42 182 -65 160 -36 182 -45 220 -81 17 -17
73 -48 124 -70 52 -22 103 -47 113 -56 24 -22 24 -91 -1 -210 -17 -83 -63
-203 -79 -205 -4 0 -40 -2 -80 -4 -92 -4 -150 -32 -252 -120 -41 -37 -92 -76
-114 -88 -29 -16 -77 -71 -170 -194 -172 -225 -252 -318 -342 -395 -69 -59
-218 -158 -236 -158 -5 0 -24 16 -44 35 -58 58 -113 41 -114 -35 0 -31 10 -44
88 -117 48 -46 95 -86 105 -89 41 -13 115 17 177 72 34 30 83 66 111 79 41 21
54 34 70 73 39 90 140 175 254 212 101 33 145 81 213 235 74 169 78 173 181
181 l84 7 -6 -34 c-3 -19 -13 -65 -21 -104 -43 -193 -45 -545 -6 -950 11 -115
20 -258 20 -317 0 -59 5 -119 11 -135 13 -36 48 -73 68 -73 15 0 14 18 -6 177
-38 306 -47 440 -47 703 -1 308 19 475 82 684 l26 89 106 50 c145 68 306 130
432 166 123 36 298 65 311 52 5 -5 -2 -37 -18 -77 -49 -121 -42 -285 16 -420
l18 -43 -29 -58 c-64 -127 -60 -316 11 -454 l18 -37 -48 -95 c-53 -104 -87
-213 -78 -249 4 -13 44 -67 91 -121 120 -139 118 -133 57 -260 -52 -109 -70
-167 -71 -228 0 -32 8 -44 66 -100 36 -35 75 -77 86 -92 l20 -28 -55 -97 c-51
-89 -97 -202 -97 -235 0 -8 38 -49 85 -91 47 -43 88 -88 91 -101 4 -16 -5 -46
-26 -89 -27 -55 -32 -73 -29 -122 l4 -57 -47 -35 -48 -34 -62 21 c-88 30 -215
36 -424 21 -99 -7 -231 -13 -295 -13 -105 0 -116 -2 -125 -20 -6 -14 -31 -25
-82 -38 -87 -22 -125 -44 -180 -103 -49 -53 -73 -98 -101 -190 -27 -88 -27
-93 8 -101 31 -6 48 -30 30 -41 -6 -3 -21 -3 -35 0 -29 8 -28 17 -12 -141 10
-114 13 -123 32 -123 12 0 28 -5 36 -10 12 -8 13 -13 3 -30 -17 -27 3 -107 29
-116 10 -3 21 -17 24 -32 12 -56 16 -62 35 -62 33 0 56 -17 67 -50 9 -24 27
-38 93 -70 45 -22 87 -44 93 -49 7 -6 35 -4 75 5 75 18 85 15 86 -17 0 -21 4
-24 31 -21 50 5 81 -13 89 -50 5 -22 29 -54 74 -98 37 -36 75 -77 84 -91 15
-23 26 -27 86 -31 49 -4 83 -13 115 -31 l46 -26 15 35 c8 19 21 34 31 34 14 0
16 -7 10 -42 l-6 -43 25 30 25 30 27 -32 c49 -56 215 -79 377 -53 33 5 100 15
147 21 84 10 86 11 98 44 10 28 107 125 125 125 3 0 18 -12 33 -26 47 -44 84
-58 155 -59 49 -1 73 -7 87 -19 35 -32 139 -57 237 -57 147 0 186 16 284 115
35 36 72 66 81 66 9 0 28 -9 42 -20 66 -52 164 -65 228 -31 37 20 59 14 59
-16 0 -9 11 -13 33 -12 17 1 59 -2 92 -6 l60 -7 13 34 13 33 16 -23 c18 -26
34 -27 96 -6 46 16 57 30 37 50 -13 13 -2 44 16 44 7 0 21 -15 31 -32 15 -28
18 -30 21 -13 6 31 23 46 44 39 12 -3 27 1 40 13 23 21 58 85 58 108 0 8 8 15
18 15 31 0 70 44 91 103 50 138 77 167 155 167 27 0 85 10 128 22 61 18 77 26
72 38 -21 52 -9 67 27 34 17 -16 24 -14 101 23 100 49 192 115 240 174 72 88
118 215 118 327 0 44 -3 52 -19 52 -10 0 -24 7 -31 16 -11 13 -10 16 8 21 13
3 26 19 32 39 11 33 10 38 -31 90 -120 155 -244 263 -356 309 -103 41 -167 47
-543 47 l-355 1 -79 -52 c-43 -28 -89 -51 -103 -51 -35 0 -116 80 -164 164
l-41 71 31 60 c16 33 35 78 40 100 27 101 -1 231 -67 319 -20 27 -41 55 -47
62 -7 10 4 40 38 106 51 101 66 168 48 219 -6 18 -32 64 -59 102 -45 67 -47
72 -47 141 1 61 7 85 44 171 26 61 45 122 48 155 4 53 2 58 -46 135 -60 93
-63 117 -26 232 39 122 30 277 -23 417 -19 48 -19 49 2 110 18 53 21 85 21
241 l0 180 36 3 c94 8 802 -95 846 -123 26 -17 46 -76 74 -215 21 -107 47
-180 76 -212 14 -16 15 -43 9 -235 -5 -175 -4 -229 8 -273 9 -35 11 -61 5 -72
-27 -51 -28 -65 -4 -98 13 -18 27 -50 30 -72 11 -63 36 -82 104 -75 99 9 194
73 243 164 34 62 43 113 28 157 -14 43 -36 46 -78 11 -35 -29 -67 -32 -77 -7
-4 9 -13 98 -20 197 -9 121 -18 194 -30 222 l-17 43 31 47 c17 25 31 58 31 73
0 14 -22 94 -49 178 -80 246 -149 355 -259 409 l-57 28 -290 1 c-226 1 -303 5
-350 17 -87 22 -117 36 -113 49 2 6 60 22 129 35 68 12 201 43 294 68 538 144
650 168 870 187 l130 11 45 47 c39 42 54 49 115 63 102 24 208 62 273 98 123
70 222 204 258 349 9 36 30 88 48 115 46 72 56 100 56 157 0 42 6 58 35 98 40
55 65 110 89 201 17 66 17 67 -3 107 -26 50 -26 65 -3 104 17 29 17 30 -10 50
-34 24 -34 30 -6 68 21 28 21 30 4 49 -10 11 -25 35 -34 53 -14 28 -23 33 -51
33 -20 0 -37 -6 -41 -15 -4 -8 -14 -30 -23 -49 -15 -28 -16 -41 -6 -90 11 -50
9 -66 -15 -158 -14 -56 -26 -120 -26 -143 0 -35 -4 -43 -30 -58 -23 -13 -30
-24 -30 -48 0 -18 -9 -62 -21 -99 -11 -37 -22 -93 -23 -124 -1 -36 -9 -66 -21
-85 -11 -16 -45 -77 -75 -135 l-55 -106 -88 -6 c-84 -6 -94 -9 -230 -78 -139
-71 -145 -73 -232 -79 -85 -5 -102 -10 -312 -98 -376 -157 -543 -202 -773
-208 -98 -3 -137 -8 -180 -25 -86 -33 -170 -25 -170 17 0 9 12 53 26 96 14 44
52 214 84 378 33 164 64 307 70 318 10 19 22 20 290 20 303 0 466 10 660 41
212 34 266 51 319 102 26 26 85 65 138 91 l93 46 50 103 c44 91 100 267 100
317 0 10 20 42 46 72 25 29 74 110 109 180 36 69 76 140 90 156 18 21 25 42
25 71 0 22 9 66 21 97 15 40 19 67 15 97 -6 33 -3 44 15 63 l22 23 -26 30
c-15 18 -30 55 -37 88 -21 99 -34 123 -70 123 -39 0 -66 14 -80 41 -9 16 -6
29 18 67 48 75 64 121 72 212 4 47 18 111 29 143 20 54 21 72 17 266 l-5 208
-46 134 c-59 169 -70 189 -98 189 -12 0 -44 7 -71 15 -76 23 -80 21 -99 -39
-31 -98 -80 -132 -122 -86 -28 30 -23 76 15 168 30 73 33 87 24 121 -10 36 -8
40 27 80 21 24 48 68 61 99 21 52 23 71 22 237 -1 173 -3 188 -43 375 -24 107
-46 240 -51 295 -8 106 -24 157 -125 390 -254 587 -546 989 -990 1366 -302
257 -328 274 -505 353 -177 79 -355 164 -460 221 -130 70 -386 102 -530 66
-120 -30 -217 -97 -259 -179 -23 -46 -18 -57 34 -75 l40 -14 8 -79 c13 -139
34 -194 152 -399 54 -94 70 -132 101 -232 2 -7 14 -13 27 -13 20 0 52 -41 199
-262 249 -374 608 -949 608 -975 0 -5 -11 -20 -25 -33 -14 -14 -25 -32 -23
-42 2 -9 46 -46 98 -80 l95 -63 -3 -50 -3 -50 94 -84 c95 -83 150 -147 181
-209 11 -21 43 -50 86 -78 88 -56 100 -69 100 -103 0 -35 11 -44 80 -66 99
-31 420 -204 420 -226 0 -14 -103 -77 -182 -110 -38 -17 -119 -48 -179 -69
-60 -22 -131 -49 -158 -60 -48 -21 -49 -23 -55 -74 -12 -92 -95 -236 -136
-236 -12 0 -43 20 -69 45 -26 25 -55 45 -63 45 -42 0 -92 -100 -109 -216 -12
-78 -13 -80 -79 -149 -37 -38 -76 -84 -88 -101 -13 -19 -36 -35 -59 -42 -22
-6 -52 -25 -68 -42 -36 -38 -50 -38 -71 1 -8 17 -32 53 -51 80 l-35 49 10 108
c10 100 5 172 -12 201 -6 9 -13 8 -27 -5 -25 -23 -25 -84 1 -117 l20 -25 -36
-68 -35 -68 25 -19 c43 -31 30 -66 -18 -48 -31 12 -56 58 -56 103 0 26 -6 37
-30 50 -53 30 -37 79 40 121 26 14 31 21 25 40 -4 12 -10 65 -14 117 -4 52
-10 101 -14 108 -13 20 -45 14 -63 -13 -21 -32 -46 -46 -62 -36 -7 4 -17 36
-23 70 -5 34 -20 96 -33 137 l-24 74 23 83 c43 153 96 291 165 434 50 101 70
154 70 181 0 56 26 134 80 242 82 164 101 222 103 309 1 81 -10 111 -41 111
-13 0 -14 -13 -9 -85 6 -80 5 -87 -24 -137 -54 -97 -79 -161 -135 -338 -74
-235 -91 -283 -131 -366 -35 -73 -87 -144 -105 -144 -22 0 10 168 82 420 66
233 90 370 89 501 l-1 114 -99 92 c-55 51 -117 102 -140 113 -45 24 -41 14
-107 220 -84 260 -180 491 -377 900 -62 129 -118 251 -124 271 -15 45 -71 140
-117 196 -37 45 -59 52 -109 33 l-26 -10 115 -222 c136 -265 240 -486 345
-738 89 -211 180 -459 189 -509 5 -30 3 -33 -17 -26 -11 3 -21 3 -21 -2 0 -12
31 -54 67 -91 47 -48 88 -192 112 -392 9 -74 41 -453 41 -487 0 -8 12 -13 28
-13 37 0 67 -22 59 -44 -4 -9 -14 -16 -23 -16 -13 0 -14 -3 -4 -15 17 -21 4
-35 -34 -35 l-33 0 -6 -117 c-4 -76 -16 -152 -32 -213 -14 -52 -40 -153 -59
-225 -27 -105 -37 -129 -50 -127 -9 2 -25 -7 -35 -19 -26 -33 -46 -18 -64 48
-31 114 -38 241 -35 668 3 472 -1 512 -68 653 -44 91 -164 218 -164 172 0 -6
31 -44 70 -85 82 -90 96 -125 112 -298 9 -91 9 -160 -1 -295 -11 -160 -20
-207 -36 -190 -4 3 -21 80 -40 169 -50 243 -78 314 -150 378 -58 50 -100 64
-201 65 -79 0 -94 -2 -118 -22 -16 -12 -34 -22 -41 -22 -7 0 -18 -7 -25 -15
-16 -19 -11 -19 85 5 44 11 95 20 113 20 109 0 190 -106 241 -315 36 -147 52
-255 45 -300 -5 -36 -2 -51 17 -81 19 -31 24 -58 30 -153 7 -99 15 -138 55
-261 41 -127 47 -156 48 -235 1 -81 -2 -95 -27 -140 -24 -42 -27 -57 -22 -95
9 -65 25 -86 25 -34 0 48 19 78 46 72 17 -3 19 -11 16 -63 -4 -76 -19 -135
-37 -141 -16 -7 -84 27 -106 52 -9 11 -22 43 -28 72 -15 70 -21 81 -97 164
-52 57 -64 76 -64 103 0 54 -16 83 -84 154 l-65 66 -118 0 -118 0 0 -50 c0
-42 -6 -58 -38 -102 -21 -29 -46 -55 -55 -58 -13 -4 -35 -68 -84 -248 -79
-282 -91 -353 -82 -457 6 -72 5 -78 -19 -106 -33 -37 -48 -29 -104 56 -27 40
-57 71 -84 87 -118 67 -167 129 -297 378 -120 233 -118 229 -158 249 -51 24
-111 83 -190 187 -70 93 -74 97 -121 104 -101 15 -167 73 -202 178 -27 78 -57
265 -45 276 23 21 218 74 320 86 42 5 53 11 67 35 22 37 74 77 162 124 89 48
91 50 71 77 -9 13 -16 32 -16 41 0 23 74 71 134 88 l44 12 4 57 c4 57 5 58 82
131 104 99 193 220 263 357 50 96 56 115 45 130 -38 55 -38 59 10 120 179 228
311 504 353 737 30 169 9 405 -49 531 -33 72 -96 138 -156 164 -28 12 -50 25
-50 30 0 5 13 14 30 21 61 25 46 72 -46 142 -58 44 -136 75 -333 129 -80 22
-170 51 -200 64 -29 14 -58 25 -65 24 -6 0 -93 -22 -194 -48z m1842 -365 c23
-13 78 -63 124 -110 45 -47 100 -95 122 -106 29 -15 44 -32 60 -66 11 -26 20
-52 20 -58 0 -6 28 -32 63 -57 71 -51 140 -129 192 -214 47 -79 47 -127 -1
-74 -10 12 -47 41 -81 66 -80 57 -150 135 -163 181 -7 28 -20 43 -49 60 -22
12 -47 22 -55 22 -8 0 -41 35 -72 78 -32 42 -104 123 -161 179 -56 56 -103
107 -103 113 0 19 63 10 104 -14z m-1098 -21 c17 -43 -45 -193 -106 -259 -62
-67 -73 -62 -83 39 -2 22 -7 48 -11 57 -6 13 4 23 52 47 64 33 92 62 92 97 0
32 46 47 56 19z m-220 -377 l-1 -73 -38 -18 c-32 -16 -37 -23 -37 -52 0 -38
-66 -184 -87 -192 -8 -3 -19 -1 -26 6 -6 6 -19 11 -28 11 -13 0 -20 -16 -29
-67 -16 -88 -26 -113 -44 -113 -20 0 -25 31 -19 115 6 70 7 74 35 86 40 17 70
66 112 182 19 54 47 114 62 134 25 33 81 66 95 57 4 -2 6 -36 5 -76z m2098
-414 c31 -15 45 -37 46 -71 0 -21 -20 -15 -56 16 -18 16 -40 34 -50 39 -19 10
-11 32 11 32 8 0 30 -7 49 -16z m204 -250 c3 -23 -18 -37 -43 -28 -16 6 -20
35 -8 48 14 14 48 1 51 -20z m-1638 -2412 c23 -17 89 -133 90 -158 0 -23 -30
-22 -78 3 -65 33 -86 27 -79 -26 2 -21 17 -66 33 -101 l28 -62 -29 -86 c-15
-48 -85 -202 -155 -342 -71 -140 -131 -266 -135 -280 -4 -14 -12 -31 -17 -37
-38 -48 -37 96 1 270 16 72 33 177 36 232 8 133 21 193 49 229 30 40 33 49 51
158 29 165 75 236 145 224 19 -3 46 -14 60 -24z m3257 -76 c9 -27 10 -49 2
-84 -8 -39 -7 -55 7 -87 48 -113 54 -209 29 -430 -8 -71 -15 -168 -15 -215 0
-47 -4 -90 -8 -95 -4 -6 -34 -30 -67 -55 -33 -24 -112 -96 -175 -159 -114
-113 -116 -114 -174 -123 -80 -11 -143 -48 -250 -146 -67 -62 -113 -94 -176
-124 -46 -22 -128 -74 -181 -114 -136 -103 -208 -148 -296 -184 -91 -38 -229
-66 -248 -50 -7 6 -16 47 -20 93 -11 142 -25 228 -41 264 -13 26 -14 39 -6 57
21 46 136 158 223 216 49 32 119 89 156 127 38 37 118 114 179 170 69 63 129
129 158 172 34 52 71 90 143 147 54 42 126 103 160 136 35 33 70 58 82 58 12
0 53 16 91 36 66 35 70 39 84 89 21 70 70 131 178 221 50 41 99 86 110 100 26
32 40 27 55 -20z m-1260 -398 c43 -48 54 -98 31 -141 -18 -34 -163 -201 -219
-251 -48 -43 -99 -66 -144 -66 -20 0 -105 35 -105 44 0 10 91 240 110 276 52
103 140 160 246 160 50 0 64 -4 81 -22z m-3038 -12 c18 -10 31 -28 40 -55 6
-23 30 -60 54 -84 l42 -42 0 -80 c0 -44 7 -101 14 -127 8 -26 12 -51 7 -55 -4
-4 -41 -8 -83 -8 l-76 0 -38 56 c-45 67 -112 128 -186 170 l-54 31 3 91 3 92
74 7 c41 4 76 10 79 13 11 11 94 4 121 -9z m-1681 -704 c6 -9 12 -22 12 -30 0
-8 22 -34 49 -58 27 -24 79 -84 115 -133 96 -128 120 -144 321 -216 128 -45
210 -88 242 -129 12 -15 58 -35 137 -61 142 -46 330 -138 561 -275 176 -105
398 -220 498 -260 l57 -22 0 -107 c0 -58 -4 -112 -9 -120 -13 -20 -153 -50
-266 -57 -191 -12 -356 21 -735 145 -135 44 -282 89 -328 100 -71 17 -91 27
-130 63 -26 23 -53 50 -60 59 -6 10 -29 23 -50 30 -95 31 -137 80 -227 259
-32 63 -69 130 -83 148 -18 24 -28 53 -34 98 -4 36 -24 115 -45 177 -33 99
-37 124 -37 215 -1 93 -3 103 -21 108 -11 4 -27 12 -35 20 -13 11 -23 8 -62
-17 -26 -17 -52 -28 -58 -24 -22 13 -5 88 24 107 20 13 150 -3 164 -20z m6026
-295 c3 -23 9 -79 12 -124 6 -77 5 -86 -23 -145 -18 -38 -67 -105 -122 -168
-126 -145 -155 -191 -195 -313 -37 -114 -62 -164 -86 -172 -35 -10 -445 -76
-570 -91 -222 -26 -406 -9 -560 52 -52 21 -53 50 -5 99 43 42 102 73 253 131
270 105 526 255 882 520 89 66 131 103 143 129 9 20 25 38 34 41 10 4 47 20
83 38 87 42 122 54 136 49 7 -2 15 -23 18 -46z m-3907 -1429 c6 -7 13 -65 17
-128 7 -125 31 -258 71 -389 14 -47 25 -92 25 -101 0 -19 -89 -64 -170 -85
-106 -28 -238 -15 -227 23 2 9 24 79 47 156 23 76 63 222 89 324 l47 186 35
12 c45 16 55 17 66 2z m182 -924 c29 -20 51 -72 51 -118 0 -34 -2 -35 -67 -57
-38 -12 -128 -44 -202 -71 -150 -54 -282 -93 -353 -103 -44 -7 -48 -6 -48 13
0 24 76 321 84 329 3 3 77 0 165 -7 160 -12 272 -5 311 20 21 14 32 12 59 -6z"/>
<path d="M3995 9830 c4 -6 11 -8 16 -5 14 9 11 15 -7 15 -8 0 -12 -5 -9 -10z"/>
</g>
</svg>
